<svg xmlns="http://www.w3.org/2000/svg" width="32" height="32" viewBox="0 0 32 32" fill="none">
  <path d="M13.4867 29.0814C14.2947 29.748 15.1373 30.3574 16 30.952C16.8645 30.3653 17.7031 29.7411 18.5133 29.0814C19.864 27.9723 21.1351 26.7698 22.3173 25.4827C25.0427 22.5027 28 18.1827 28 13.3334C28 11.7575 27.6896 10.1971 27.0866 8.74117C26.4835 7.28527 25.5996 5.9624 24.4853 4.84809C23.371 3.73379 22.0481 2.84988 20.5922 2.24682C19.1363 1.64376 17.5759 1.33337 16 1.33337C14.4241 1.33337 12.8637 1.64376 11.4078 2.24682C9.95189 2.84988 8.62902 3.73379 7.51472 4.84809C6.40042 5.9624 5.5165 7.28527 4.91345 8.74117C4.31039 10.1971 4 11.7575 4 13.3334C4 18.1827 6.95733 22.5014 9.68267 25.4827C10.8648 26.7703 12.136 27.9719 13.4867 29.0814ZM16 17.6667C14.8507 17.6667 13.7485 17.2102 12.9359 16.3975C12.1232 15.5848 11.6667 14.4826 11.6667 13.3334C11.6667 12.1841 12.1232 11.0819 12.9359 10.2692C13.7485 9.45659 14.8507 9.00004 16 9.00004C17.1493 9.00004 18.2515 9.45659 19.0641 10.2692C19.8768 11.0819 20.3333 12.1841 20.3333 13.3334C20.3333 14.4826 19.8768 15.5848 19.0641 16.3975C18.2515 17.2102 17.1493 17.6667 16 17.6667Z" fill="#FFF9EC"/>
</svg>