<svg xmlns="http://www.w3.org/2000/svg" width="32" height="32" viewBox="0 0 32 32" fill="none">
  <g clip-path="url(#clip0_1_5)">
    <path d="M32 18.5806H31.4839C31.2484 18.5806 31.0206 18.6129 30.8037 18.6723C30.9119 18.3101 30.9678 17.9323 30.9678 17.5484C30.9678 16.7708 30.7397 16.0179 30.3084 15.3709L29.4193 14.0372L28.9032 14.8114V2.58063C28.9032 1.72681 28.2086 1.03225 27.3548 1.03225H26.8387C26.8387 0.463125 26.3756 0 25.8064 0H18.4921C17.5769 0 16.7083 0.302188 16 0.859312C15.2917 0.302188 14.4231 0 13.5079 0H6.19356C5.62437 0 5.16131 0.463125 5.16131 1.03225H4.64519C3.79137 1.03225 3.09681 1.72681 3.09681 2.58063V14.8114L2.58069 14.0372L1.69156 15.3709C1.26025 16.0178 1.03225 16.7708 1.03225 17.5484C1.03225 17.9323 1.08806 18.3101 1.19625 18.6723C0.979437 18.6129 0.751563 18.5806 0.516125 18.5806H0V20.129C0 20.7095 0.19275 21.2458 0.517563 21.6774C0.517125 21.6774 0.516625 21.6774 0.516125 21.6774H0V22.1935C0 23.1963 0.404687 24.1139 1.0775 24.7741H0V25.2903C0 26.386 0.68675 27.3238 1.65225 27.6975L0.617938 28.3871L1.95156 29.2763C2.3905 29.5689 2.87838 29.7676 3.38956 29.8654C3.11631 30.1001 2.87269 30.3736 2.66738 30.6815L2.29256 31.2437L4.06238 31.8337C4.3935 31.944 4.73838 32 5.0875 32H5.09781C5.44112 32 5.77381 31.9462 6.08719 31.8461L6.04862 32H8.1945C9.54638 32 10.7361 31.169 11.2151 29.9355H13.4193C14.5577 29.9355 15.4838 30.8616 15.4838 32H16.5161C16.5161 30.8616 17.4422 29.9355 18.5806 29.9355H20.7847C21.2639 31.1691 22.4535 32 23.8054 32H25.9513L25.9128 31.8461C26.2262 31.9462 26.5589 32 26.9022 32H26.9125C27.2616 32 27.6065 31.944 27.9376 31.8336L29.7075 31.2437L29.3327 30.6814C29.1274 30.3735 28.8837 30.1 28.6105 29.8653C29.1217 29.7676 29.6095 29.5689 30.0485 29.2762L31.3821 28.3871L30.3477 27.6975C31.3132 27.3239 32 26.3861 32 25.2903V24.7742H30.9225C31.5953 24.114 32 23.1963 32 22.1936V21.6774H31.4839C31.4834 21.6774 31.4829 21.6774 31.4824 21.6774C31.8072 21.2458 32 20.7096 32 20.1291V18.5806ZM23.7419 27.3548C23.7419 26.8573 23.9245 26.3879 24.2581 26.0231C24.5916 26.3879 24.7742 26.8573 24.7742 27.3548C24.7742 27.8523 24.5916 28.3217 24.2581 28.6866C23.9245 28.3217 23.7419 27.8523 23.7419 27.3548ZM22.7097 28.9032H22.6461H21.6774V28.8147C21.6774 28.2045 21.8579 27.622 22.1936 27.1283C22.5292 27.622 22.7097 28.2045 22.7097 28.8147V28.9032ZM26.2156 28.0501C25.9508 27.7204 25.8064 27.3137 25.8064 26.8846C25.8064 26.5966 25.8745 26.3082 26.0033 26.0506L26.053 25.9512C26.2802 26.5002 26.6554 26.98 27.1415 27.3331C26.8591 27.6026 26.5486 27.8429 26.2156 28.0501ZM27.8709 22.7978C28.3599 22.9704 28.741 23.3824 28.8623 23.906C28.8334 24.1467 28.7896 24.3828 28.7314 24.6134C28.2148 24.3589 27.871 23.8301 27.871 23.2258V22.7978H27.8709ZM27.8709 19.7014C28.4718 19.9144 28.9032 20.4884 28.9032 21.1613V21.589C28.3024 21.3759 27.8709 20.802 27.8709 20.1291V19.7014ZM28.2157 25.932C28.0988 26.1467 27.9681 26.353 27.8254 26.5499C27.2516 26.1691 26.883 25.5382 26.8425 24.8397C27.4295 24.9895 27.9357 25.3874 28.2157 25.932ZM29.9353 23.2402C30.2227 23.0175 30.5518 22.8596 30.9022 22.7771C30.7566 23.4135 30.3762 23.9639 29.8448 24.3256C29.9034 23.9723 29.9345 23.6098 29.9353 23.2402ZM29.9355 21.1613C29.9355 20.4884 30.367 19.9144 30.9678 19.7014V20.1291C30.9678 20.8019 30.5362 21.3759 29.9355 21.589V21.1613ZM29.3891 15.9436L29.4194 15.8982L29.4496 15.9436C29.7675 16.4203 29.9355 16.9753 29.9355 17.5484C29.9355 18.1215 29.7675 18.6764 29.4496 19.1532L29.4194 19.1986L29.3891 19.1532C29.0713 18.6764 28.9032 18.1214 28.9032 17.5484C28.9032 16.9753 29.0713 16.4203 29.3891 15.9436ZM25.8064 1.03225V16.5161H18.4921C17.7886 16.5161 17.1129 16.6954 16.5161 17.031V15.4838H18.5806V14.4516H16.5161V3.09675H19.8101L17.5484 7.62006V7.74194C17.5484 9.73406 19.1691 11.3548 21.1612 11.3548C23.1534 11.3548 24.7741 9.73406 24.7741 7.74194V7.62006L22.5125 3.09675H23.7419V2.0645H16.5161V1.77313C17.0639 1.29438 17.7577 1.03225 18.4921 1.03225H25.8064ZM21.3584 3.09675L23.4229 7.22581H18.8996L20.9641 3.09675H21.3584ZM23.6896 8.25806C23.4498 9.4345 22.4075 10.3226 21.1613 10.3226C19.9151 10.3226 18.8728 9.4345 18.633 8.25806H23.6896ZM6.19356 1.03225H13.5079C14.2423 1.03225 14.9361 1.29438 15.4839 1.77313V2.0645H8.25806V3.09675H9.4875L7.22581 7.62006V7.74194C7.22581 9.73406 8.84656 11.3548 10.8387 11.3548C12.8308 11.3548 14.4516 9.73406 14.4516 7.74194V7.62006L12.1899 3.09675H15.4838V14.4516H13.4194V15.4838H15.4839V17.031C14.8871 16.6953 14.2114 16.5161 13.5079 16.5161H6.19356V1.03225ZM8.57712 7.22581L10.6416 3.09675H11.0359L13.1004 7.22581H8.57712ZM13.3671 8.25806C13.1272 9.4345 12.0849 10.3226 10.8387 10.3226C9.59256 10.3226 8.55025 9.4345 8.31044 8.25806H13.3671ZM4.12906 2.58063C4.12906 2.29606 4.36062 2.0645 4.64519 2.0645H5.16131V16.5161C5.16131 17.0853 5.62444 17.5484 6.19356 17.5484H13.5079C14.3115 17.5484 15.0669 17.8612 15.6351 18.4295L16.0001 18.7945L16.365 18.4295C16.9331 17.8613 17.6886 17.5484 18.4921 17.5484H25.8064C26.3756 17.5484 26.8387 17.0852 26.8387 16.5161V2.0645H27.3548C27.6394 2.0645 27.8709 2.29606 27.8709 2.58063V18.0645C27.8709 18.3491 27.6394 18.5806 27.3548 18.5806H26.8387H17.2295L17.0322 18.9749C16.8355 19.3684 16.4399 19.6129 16 19.6129C15.5601 19.6129 15.1645 19.3684 14.9677 18.9748L14.7706 18.5806H5.16131H4.64519C4.36062 18.5806 4.12906 18.3491 4.12906 18.0645V2.58063ZM5.94694 25.9513L5.99662 26.0507C6.12544 26.3083 6.1935 26.5967 6.1935 26.8848C6.1935 27.3138 6.04931 27.7205 5.78431 28.0502C5.45119 27.843 5.14087 27.6026 4.85838 27.3333C5.34456 26.9801 5.71975 26.5002 5.94694 25.9513ZM10.3226 28.9032H9.35388H9.29031V28.8147C9.29031 28.2045 9.47075 27.622 9.80644 27.1283C10.1421 27.622 10.3226 28.2045 10.3226 28.8147V28.9032ZM7.74194 28.6866C7.40838 28.3217 7.22581 27.8523 7.22581 27.3548C7.22581 26.8573 7.40838 26.3879 7.74194 26.0231C8.0755 26.3879 8.25806 26.8573 8.25806 27.3548C8.25806 27.8523 8.0755 28.3217 7.74194 28.6866ZM3.13769 23.906C3.25906 23.3824 3.64006 22.9704 4.12906 22.7978V23.2258C4.12906 23.8301 3.78525 24.3589 3.26863 24.6134C3.21044 24.3828 3.1665 24.1467 3.13769 23.906ZM2.06469 23.2402C2.06544 23.6097 2.09662 23.9722 2.15512 24.3256C1.62375 23.9639 1.24331 23.4136 1.09775 22.7771C1.44825 22.8597 1.77731 23.0175 2.06469 23.2402ZM4.17456 26.5499C4.03188 26.353 3.90112 26.1467 3.78425 25.932C4.06431 25.3874 4.5705 24.9895 5.15756 24.8397C5.11706 25.5381 4.74844 26.1689 4.17456 26.5499ZM4.12906 20.1291C4.12906 20.8019 3.69756 21.3759 3.09681 21.589V21.1613C3.09681 20.4884 3.52831 19.9144 4.12906 19.7014V20.1291ZM2.55037 15.9436L2.58063 15.8982L2.61087 15.9436C2.92875 16.4203 3.09675 16.9753 3.09675 17.5484C3.09675 18.1215 2.92875 18.6764 2.61087 19.1532L2.58063 19.1986L2.55037 19.1532C2.2325 18.6764 2.0645 18.1214 2.0645 17.5484C2.0645 16.9753 2.2325 16.4203 2.55037 15.9436ZM1.03225 19.7014C1.63306 19.9144 2.0645 20.4884 2.0645 21.1613V21.589C1.46375 21.3759 1.03225 20.802 1.03225 20.1291V19.7014ZM1.12069 25.8064H2.00094C2.22244 25.8064 2.44075 25.8548 2.64112 25.9459C2.77944 26.2565 2.94037 26.555 3.12244 26.8387H2.58063C1.90775 26.8387 1.33375 26.4073 1.12069 25.8064ZM2.47881 28.3871L2.52419 28.3569C2.94931 28.0735 3.43656 27.9096 3.94338 27.8773C4.26325 28.2093 4.61681 28.5086 4.99869 28.7694C4.71919 28.8576 4.42669 28.9032 4.12906 28.9032C3.55594 28.9032 3.001 28.7353 2.52425 28.4174L2.47881 28.3871ZM5.08744 30.9678C4.8495 30.9678 4.61438 30.9296 4.38875 30.8544L3.98275 30.719C4.52312 30.2201 5.236 29.9354 5.99 29.9354H6.96831C6.95675 29.9538 6.94413 29.9713 6.93213 29.9892C6.8515 30.0798 6.77556 30.175 6.70525 30.2748C6.2985 30.7061 5.72381 30.9677 5.09781 30.9677H5.08744V30.9678ZM8.1945 30.9678H7.48331C7.49469 30.9497 7.50712 30.9324 7.519 30.9147C7.59963 30.8241 7.67537 30.7287 7.74575 30.6289C8.1525 30.1973 8.7275 29.9354 9.35375 29.9354H10.0649C9.66931 30.5654 8.97119 30.9678 8.1945 30.9678ZM18.5806 28.9032C17.5045 28.9032 16.5552 29.4553 16 30.2908C15.4447 29.4553 14.4955 28.9032 13.4194 28.9032H11.4998H11.3549V28.8147C11.3549 27.7354 10.9346 26.7207 10.1714 25.9576L9.8065 25.5928L9.44156 25.9577C9.32312 26.0761 9.21394 26.2013 9.11225 26.3312C8.96425 25.9211 8.72662 25.5452 8.40931 25.2278L7.742 24.5604L7.07469 25.2278C6.99806 25.3044 6.9265 25.3846 6.85931 25.4677L6.45506 24.6591L6.19294 24.7465C6.19306 24.7346 6.19356 24.7226 6.19356 24.7107V23.742H5.67744C5.48112 23.742 5.28744 23.7609 5.09831 23.7967C5.13956 23.6127 5.16125 23.4216 5.16125 23.2259V21.6775H4.64512C4.64469 21.6775 4.64419 21.6775 4.64369 21.6775C4.96844 21.2459 5.16125 20.7096 5.16125 20.1291V19.613H14.1428C14.5397 20.2544 15.2344 20.6453 16 20.6453C16.7657 20.6453 17.4602 20.2545 17.8572 19.613H26.8388V20.1291C26.8388 20.7096 27.0315 21.2459 27.3563 21.6775C27.3559 21.6775 27.3553 21.6775 27.3549 21.6775H26.8388V23.2259C26.8388 23.4217 26.8605 23.6127 26.9017 23.7967C26.7126 23.7609 26.5189 23.742 26.3226 23.742H25.8064V24.7107C25.8064 24.7227 25.8069 24.7346 25.8071 24.7465L25.5449 24.6591L25.1407 25.4677C25.0734 25.3846 25.0019 25.3043 24.9253 25.2278L24.258 24.5604L23.5907 25.2278C23.2732 25.5452 23.0358 25.9211 22.8878 26.3312C22.7861 26.2013 22.677 26.0761 22.5584 25.9577L22.1934 25.5928L21.8285 25.9577C21.0653 26.7208 20.6451 27.7354 20.6451 28.8146V28.9032H20.5002H18.5806V28.9032ZM23.8055 30.9678C23.0289 30.9678 22.3307 30.5654 21.935 29.9355H22.6462C23.2724 29.9355 23.8474 30.1974 24.2542 30.629C24.3246 30.7288 24.4003 30.8241 24.4809 30.9147C24.4928 30.9324 24.5052 30.9497 24.5166 30.9678L23.8055 30.9678ZM27.6112 30.8544C27.3856 30.9296 27.1506 30.9678 26.9126 30.9678H26.9023C26.2763 30.9678 25.7017 30.7061 25.2949 30.2749C25.2245 30.1751 25.1486 30.0799 25.068 29.9893C25.0559 29.9713 25.0434 29.9538 25.0318 29.9355H26.0101C26.7641 29.9355 27.4769 30.2201 28.0174 30.7191L27.6112 30.8544ZM29.4758 28.4174C28.9991 28.7353 28.4441 28.9032 27.871 28.9032C27.5734 28.9032 27.2808 28.8576 27.0014 28.7695C27.3833 28.5086 27.7369 28.2094 28.0567 27.8773C28.5635 27.9096 29.0508 28.0736 29.4759 28.3569L29.5213 28.3872L29.4758 28.4174ZM29.4194 26.8387H28.8776C29.0596 26.5549 29.2205 26.2565 29.3589 25.9459C29.5592 25.8548 29.7776 25.8064 29.9991 25.8064H30.8793C30.6663 26.4073 30.0922 26.8387 29.4194 26.8387Z" fill="white"/>
    <path d="M7.74194 15.4839C8.02699 15.4839 8.25806 15.2528 8.25806 14.9678C8.25806 14.6827 8.02699 14.4516 7.74194 14.4516C7.45689 14.4516 7.22581 14.6827 7.22581 14.9678C7.22581 15.2528 7.45689 15.4839 7.74194 15.4839Z" fill="white"/>
    <path d="M9.80644 15.4839C10.0915 15.4839 10.3226 15.2528 10.3226 14.9678C10.3226 14.6827 10.0915 14.4516 9.80644 14.4516C9.52139 14.4516 9.29031 14.6827 9.29031 14.9678C9.29031 15.2528 9.52139 15.4839 9.80644 15.4839Z" fill="white"/>
    <path d="M24.7742 14.4516H21.6774V15.4839H24.7742V14.4516Z" fill="white"/>
    <path d="M24.7742 12.3871H22.7097V13.4194H24.7742V12.3871Z" fill="white"/>
  </g>
  <defs>
    <clipPath id="clip0_1_5">
      <rect width="32" height="32" fill="white"/>
    </clipPath>
  </defs>
</svg>